<?xml version="1.0" standalone="no"?>
<!DOCTYPE svg PUBLIC "-//W3C//DTD SVG 1.0//EN" "http://www.w3.org/TR/2001/REC-SVG-20010904/DTD/svg10.dtd">
<svg xmlns="http://www.w3.org/2000/svg" xmlns:xlink="http://www.w3.org/1999/xlink" id="body_1" width="38" height="38">

<g transform="matrix(0.07421875 0 0 0.07421875 0 0)">
	<g transform="matrix(0.1 0 -0 -0.1 0 512)">
        <path d="M397 5104C 300 5081 230 5041 155 4965C 78 4888 39 4820 15 4718C -7 4623 -7 497 15 402C 39 300 78 232 155 155C 232 78 300 39 402 15C 497 -7 4623 -7 4718 15C 4820 39 4888 78 4965 155C 5042 232 5081 300 5105 402C 5127 497 5127 4623 5105 4718C 5081 4820 5042 4888 4965 4965C 4888 5042 4820 5081 4718 5105C 4626 5127 487 5126 397 5104zM3742 3780C 3817 3752 3889 3704 3916 3663C 3935 3635 3937 3624 3928 3588C 3913 3518 3861 3374 3804 3241C 3774 3172 3750 3111 3750 3105C 3750 3086 3872 2976 4084 2804C 4317 2615 4407 2531 4474 2437C 4692 2132 4644 1725 4362 1490C 4206 1359 4019 1303 3765 1313C 3591 1319 3476 1349 3310 1432L3310 1432L3185 1495L3187 1564C 3189 1654 3233 1744 3302 1803L3302 1803L3350 1843L3459 1786C 3594 1716 3694 1689 3815 1689C 3992 1689 4113 1753 4179 1883C 4209 1942 4214 1960 4214 2028C 4215 2121 4195 2179 4133 2268C 4098 2317 4040 2369 3867 2506C 3745 2603 3628 2699 3608 2718C 3582 2743 3567 2751 3560 2744C 3554 2738 3459 2570 3349 2370C 3239 2170 3121 1963 3086 1911C 2807 1489 2497 1310 2042 1310C 1760 1310 1530 1392 1363 1553L1363 1553L1300 1613L1162 1547C 1013 1475 824 1396 717 1361L717 1361L648 1338L618 1366C 563 1418 527 1505 522 1595L522 1595L518 1675L571 1694C 673 1729 845 1802 971 1862L971 1862L1097 1922L1063 2003C 933 2312 919 2712 1028 2990C 1128 3244 1347 3440 1586 3490C 1669 3508 1831 3506 1915 3486C 2205 3417 2400 3150 2401 2820C 2401 2491 2196 2185 1773 1882L1773 1882L1660 1801L1690 1780C 1769 1724 1879 1691 2020 1683C 2215 1672 2361 1720 2518 1845C 2692 1985 2789 2129 3099 2705C 3330 3133 3331 3135 3323 3180C 3319 3205 3315 3288 3315 3365C 3315 3483 3319 3515 3338 3570C 3371 3667 3472 3786 3535 3803C 3573 3814 3686 3801 3742 3780z" stroke="none" fill="#552288" fill-rule="nonzero" />
        <path d="M1631 3124C 1500 3078 1404 2958 1360 2784C 1315 2611 1350 2266 1426 2118L1426 2118L1440 2090L1513 2142C 1874 2398 2020 2592 2020 2815C 2020 2932 1978 3030 1906 3085C 1836 3138 1719 3154 1631 3124z" stroke="none" fill="#552288" fill-rule="nonzero" />
	</g>
</g>
</svg>